<?xml version="1.0" encoding="UTF-8" standalone="no"?>
<!DOCTYPE svg PUBLIC "-//W3C//DTD SVG 1.1//EN" "http://www.w3.org/Graphics/SVG/1.1/DTD/svg11.dtd">
<svg width="100%" height="100%" viewBox="0 0 1254 1254" version="1.1" xmlns="http://www.w3.org/2000/svg" xmlns:xlink="http://www.w3.org/1999/xlink" xml:space="preserve" xmlns:serif="http://www.serif.com/" style="fill-rule:evenodd;clip-rule:evenodd;stroke-linejoin:round;stroke-miterlimit:2;">
    <g id="name">
    </g>
    <g id="logo" transform="matrix(1,0,0,1,69.0155,21.7565)">
        <path d="M428.115,184.722C451.615,144.325 494.872,115.824 541.766,110.749C580.522,106.554 620.795,118.184 651.393,142.552C665.83,154.051 678.088,168.278 687.428,184.18C776.784,337.784 865.502,491.759 954.538,645.55C968.673,670.082 975.198,698.469 974.151,726.545C973.259,750.449 966.878,774.126 955.03,795.005C910.984,871.875 866.62,948.563 822.414,1025.34C796.102,1070.82 745.312,1100.17 693.049,1100.5C603.504,1100.68 513.958,1100.5 424.412,1100.5C372.057,1100.39 321.319,1071.15 294.913,1026.19C250.263,949.44 205.931,872.501 161.44,795.653C135.177,750.071 135.193,691.335 161.126,645.887C249.802,491.98 339.119,338.443 428.115,184.722ZM253.565,693.972C244.99,708.999 244.844,727.513 253.567,742.801C297.895,819.745 339.628,892.549 384.596,969.121C393.361,983.905 409.088,993.14 426.658,993.25C516.205,993.439 600.828,993.806 690.372,993.249C707.579,993.069 723.493,984.07 732.387,968.843C776.746,892.148 818.861,819.782 862.577,742.72C871.021,727.697 871.121,709.432 862.418,694.179C773.684,540.209 690.19,394.496 600.199,241.257C590.715,225.261 572.706,215.802 554.047,217.28C538.088,218.543 523.8,227.406 515.558,241.438C426.279,394.916 342.202,540.122 253.565,693.972ZM603.018,861.71C593.729,877.799 576.562,887.71 557.984,887.71C539.407,887.71 522.24,877.799 512.951,861.71C485.647,814.418 450.93,754.286 423.626,706.994C414.337,690.905 414.337,671.082 423.626,654.994C432.914,638.905 450.081,628.994 468.659,628.994L647.31,628.994C665.888,628.994 683.054,638.905 692.343,654.994C701.632,671.082 701.632,690.905 692.343,706.994C665.039,754.286 630.322,814.418 603.018,861.71Z" style="fill:white;fill-rule:nonzero;"/>
        <clipPath id="_clip1">
            <path d="M428.115,184.722C451.615,144.325 494.872,115.824 541.766,110.749C580.522,106.554 620.795,118.184 651.393,142.552C665.83,154.051 678.088,168.278 687.428,184.18C776.784,337.784 865.502,491.759 954.538,645.55C968.673,670.082 975.198,698.469 974.151,726.545C973.259,750.449 966.878,774.126 955.03,795.005C910.984,871.875 866.62,948.563 822.414,1025.34C796.102,1070.82 745.312,1100.17 693.049,1100.5C603.504,1100.68 513.958,1100.5 424.412,1100.5C372.057,1100.39 321.319,1071.15 294.913,1026.19C250.263,949.44 205.931,872.501 161.44,795.653C135.177,750.071 135.193,691.335 161.126,645.887C249.802,491.98 339.119,338.443 428.115,184.722ZM253.565,693.972C244.99,708.999 244.844,727.513 253.567,742.801C297.895,819.745 339.628,892.549 384.596,969.121C393.361,983.905 409.088,993.14 426.658,993.25C516.205,993.439 600.828,993.806 690.372,993.249C707.579,993.069 723.493,984.07 732.387,968.843C776.746,892.148 818.861,819.782 862.577,742.72C871.021,727.697 871.121,709.432 862.418,694.179C773.684,540.209 690.19,394.496 600.199,241.257C590.715,225.261 572.706,215.802 554.047,217.28C538.088,218.543 523.8,227.406 515.558,241.438C426.279,394.916 342.202,540.122 253.565,693.972ZM603.018,861.71C593.729,877.799 576.562,887.71 557.984,887.71C539.407,887.71 522.24,877.799 512.951,861.71C485.647,814.418 450.93,754.286 423.626,706.994C414.337,690.905 414.337,671.082 423.626,654.994C432.914,638.905 450.081,628.994 468.659,628.994L647.31,628.994C665.888,628.994 683.054,638.905 692.343,654.994C701.632,671.082 701.632,690.905 692.343,706.994C665.039,754.286 630.322,814.418 603.018,861.71Z" clip-rule="nonzero"/>
        </clipPath>
        <g clip-path="url(#_clip1)">
            <g transform="matrix(0.848248,0,0,0.848248,-66.3146,-162.747)">
                <g transform="matrix(7.71508e-17,1.25997,-1.25997,7.71508e-17,2023.21,100.443)">
                    <rect x="106" y="397" width="1254" height="1254" style="fill:url(#_Linear2);"/>
                </g>
                <g transform="matrix(1,0,0,1,5.97271,2.27374e-13)">
                    <path d="M1523,1814L-57,1814L-57,398L411.716,1133.45L504.184,972.003C504.184,972.003 608.643,1153.3 674.735,1268.01C685.664,1286.98 705.879,1298.68 727.771,1298.71C749.662,1298.74 769.908,1287.09 780.888,1268.15C847.197,1153.77 951.912,973.142 951.912,973.142L1043.62,1134L1523,398L1523,1814Z" style="fill:url(#_Linear3);"/>
                </g>
            </g>
        </g>
    </g>
    <defs>
        <linearGradient id="_Linear2" x1="0" y1="0" x2="1" y2="0" gradientUnits="userSpaceOnUse" gradientTransform="matrix(1254,1.58844,-1.58844,1254,106,1024)"><stop offset="0" style="stop-color:rgb(112,162,215);stop-opacity:1"/><stop offset="0.31" style="stop-color:rgb(119,130,220);stop-opacity:1"/><stop offset="1" style="stop-color:rgb(126,98,225);stop-opacity:1"/></linearGradient>
        <linearGradient id="_Linear3" x1="0" y1="0" x2="1" y2="0" gradientUnits="userSpaceOnUse" gradientTransform="matrix(7.17688,-1053.74,1053.74,7.17688,895.823,1651)"><stop offset="0" style="stop-color:rgb(112,162,215);stop-opacity:1"/><stop offset="0.46" style="stop-color:rgb(123,112,223);stop-opacity:1"/><stop offset="1" style="stop-color:rgb(126,98,225);stop-opacity:1"/></linearGradient>
    </defs>
</svg>
